<svg xmlns="http://www.w3.org/2000/svg" viewBox="0 0 381.04 262.7"><defs><style>.cls-1{fill:#002159;}.cls-2{fill:#4787fa;}</style></defs><g id="Layer_2" data-name="Layer 2"><g id="Layer_1-2" data-name="Layer 1"><polygon class="cls-1" points="230.27 0 230.27 0.11 183.05 21.36 135.83 0 230.27 0"/><path class="cls-2" d="M234.82,87.55v45.83H188.88a50.41,50.41,0,0,0,31-10.66C233.45,112.29,234.82,87.55,234.82,87.55Z"/><polygon class="cls-2" points="136.03 68.42 156.67 59.1 156.67 35.2 183.11 47.16 230.47 25.83 230.47 4.57 183.25 25.83 136.03 4.46 136.03 68.42"/><path class="cls-1" d="M136,74.19l21.14-9.54V81.14s.36,18,14.5,23.65a34.62,34.62,0,0,0,20.56,1.09,23.54,23.54,0,0,0,17.57-22.07c.89-16.73,0-42.89,0-42.89l20.67-9.32V83.09s-1.37,24.74-14.9,35.06a50,50,0,0,1-40.33,9.9c-9.12-1.14-26.55-6.67-34.31-25.1C135.72,90.59,136,74.19,136,74.19Z"/><path class="cls-1" d="M52.38,160.15v36a18,18,0,0,1-6.84,15.14c-4.54,3.46-11.15,5.22-19.69,5.22S11,214.77,6.66,211.28A18.37,18.37,0,0,1,0,195.94V160.15H15.67v36.57q0,10.6,10.71,10.6A10.47,10.47,0,0,0,34,204.53a10.36,10.36,0,0,0,2.79-7.67V160.15Z"/><path class="cls-1" d="M126.1,215.71H106.91L80.8,175.47H80a33.7,33.7,0,0,1,1.45,9.87v30.37H67V160.15h19.3L112.12,200h.62a36.31,36.31,0,0,1-1.09-9.51V160.15H126.1Z"/><path class="cls-1" d="M143.84,215.71V160.15h14.78v55.56Z"/><path class="cls-1" d="M206.62,215.71l-16-47.41H190A51.51,51.51,0,0,1,191,178.51v37.2H176.47V160.15h24.15L215,203.81h.45l14.33-43.66h24.52v55.56H239.45V178.06a59.3,59.3,0,0,1,.81-9.59h-.48l-16,47.24Z"/><path class="cls-1" d="M309.23,215.71l-4.85-13.94h-22l-4.85,13.94h-15.7l20.92-55.78h21.36l21,55.78Zm-7.78-23.26-4.52-12.94c-.28-.78-.86-2.79-1.81-5.88-.67-2.08-1.24-4.2-1.7-6.34-.5,2.18-1.15,4.58-1.93,7.2s-2.79,8.62-6,18Z"/><path class="cls-1" d="M381,215.71H364.65L352.58,195.8l-11.16,19.91H325l19.3-28.84-17.91-26.72h15.82l11.16,18.27L363,160.15h16.45l-17.85,27.14Z"/><path class="cls-2" d="M124,259a18,18,0,0,1-11,3.74,14.28,14.28,0,0,1-9.82-3.32,11.37,11.37,0,0,1-3.74-8.87,13.09,13.09,0,0,1,1.54-6.28,10.53,10.53,0,0,1,4.49-4.52,15.3,15.3,0,0,1,7.28-1.58,12.82,12.82,0,0,1,7.16,1.75,8.68,8.68,0,0,1,3.66,5.27l-3.15.81a6.83,6.83,0,0,0-2.79-3.85,9,9,0,0,0-5-1.28,9.45,9.45,0,0,0-7.23,2.62,9.63,9.63,0,0,0-2.45,6.89,10.47,10.47,0,0,0,1.28,5.25,7.52,7.52,0,0,0,3.49,3.2,12.33,12.33,0,0,0,5.07,1.06,13.3,13.3,0,0,0,7.73-2.45V253h-7.81v-2.79h11.16Z"/><path class="cls-2" d="M153.15,262.27H136.41V238.51h3.51v20.94H153Z"/><path class="cls-2" d="M176.21,238.12a12.65,12.65,0,0,1,9.12,3.37,11.77,11.77,0,0,1,3.54,8.95,11.46,11.46,0,0,1-3.57,8.87A13.89,13.89,0,0,1,167,259.2a11.52,11.52,0,0,1-3.49-8.37A12.24,12.24,0,0,1,167,241.6,12.83,12.83,0,0,1,176.21,238.12Zm0,21.89a8.82,8.82,0,0,0,6.53-2.54,9.72,9.72,0,0,0,2.54-7,9.52,9.52,0,0,0-2.57-7.14,8.82,8.82,0,0,0-6.41-2.56,9.06,9.06,0,0,0-6.56,2.46,10,10,0,0,0-2.57,7.5,9.17,9.17,0,0,0,2.52,6.69,8.74,8.74,0,0,0,6.49,2.46Z"/><path class="cls-2" d="M215.82,249.63a7.08,7.08,0,0,1,3.74,2.21,5.37,5.37,0,0,1,1.22,3.54,6.26,6.26,0,0,1-1.11,3.65,6.62,6.62,0,0,1-3.18,2.46,16,16,0,0,1-5.58.78H200.76V238.51h10a9.81,9.81,0,0,1,6.81,1.89,5.61,5.61,0,0,1,2,4.19,5,5,0,0,1-.92,2.79A6.94,6.94,0,0,1,215.82,249.63Zm-11.55-1.17H210a23.11,23.11,0,0,0,3-.16,4.4,4.4,0,0,0,2.12-1,2.8,2.8,0,0,0,.92-2.37,3.12,3.12,0,0,0-.92-2.49,4.29,4.29,0,0,0-2.23-1,26.3,26.3,0,0,0-3.32-.2h-5.3Zm0,11h6.61a8.33,8.33,0,0,0,4.91-1.09,3.89,3.89,0,0,0,.51-5.49h0a3.86,3.86,0,0,0-.5-.49,9.3,9.3,0,0,0-5.3-1.09h-6.14Z"/><path class="cls-2" d="M254.87,262.27h-4l-3.13-7.22H236.6l-2.79,7.22H230l10.18-23.76H244Zm-8.15-9.71q-3.24-7.76-3.68-8.78c-.35-.91-.66-1.85-.92-2.79h0a22.27,22.27,0,0,1-1.37,4.43l-2.95,7.14Z"/><path class="cls-2" d="M281.6,262.27H265V238.51h3.49v20.94H281.6Z"/></g></g></svg>